# Blender v2.83.0 OBJ File: 'fence2.blend'
# www.blender.org
mtllib fence2.mtl
o Cube
v 0.059897 1.000000 -0.029397
v 0.059897 -1.000000 -0.029397
v 0.059897 1.000000 0.090397
v 0.059897 -1.000000 0.090397
v -0.059897 1.000000 -0.029397
v -0.059897 -1.000000 -0.029397
v -0.059897 1.000000 0.090397
v -0.059897 -1.000000 0.090397
v 0.059897 1.000000 -7.476712
v 0.059897 -1.000000 -7.476712
v 0.059897 1.000000 -7.356918
v 0.059897 -1.000000 -7.356918
v -0.059897 1.000000 -7.476712
v -0.059897 -1.000000 -7.476712
v -0.059897 1.000000 -7.356918
v -0.059897 -1.000000 -7.356918
v -0.060000 0.555017 0.072356
v -0.060000 0.675017 0.072356
v -0.060000 0.555017 -7.427644
v -0.060000 0.675017 -7.427644
v 0.060000 0.555017 0.072356
v 0.060000 0.675017 0.072356
v 0.060000 0.555017 -7.427644
v 0.060000 0.675017 -7.427644
v -0.060000 -0.245035 0.072356
v -0.060000 -0.125035 0.072356
v -0.060000 -0.245035 -7.427644
v -0.060000 -0.125035 -7.427644
v 0.060000 -0.245035 0.072356
v 0.060000 -0.125035 0.072356
v 0.060000 -0.245035 -7.427644
v 0.060000 -0.125035 -7.427644
vt 0.625000 0.500000
vt 0.875000 0.500000
vt 0.875000 0.750000
vt 0.625000 0.750000
vt 0.375000 0.750000
vt 0.625000 1.000000
vt 0.375000 1.000000
vt 0.375000 0.000000
vt 0.625000 0.000000
vt 0.625000 0.250000
vt 0.375000 0.250000
vt 0.125000 0.500000
vt 0.375000 0.500000
vt 0.125000 0.750000
vt 0.625000 0.500000
vt 0.875000 0.500000
vt 0.875000 0.750000
vt 0.625000 0.750000
vt 0.375000 0.750000
vt 0.625000 1.000000
vt 0.375000 1.000000
vt 0.375000 0.000000
vt 0.625000 0.000000
vt 0.625000 0.250000
vt 0.375000 0.250000
vt 0.125000 0.500000
vt 0.375000 0.500000
vt 0.125000 0.750000
vt 0.375000 0.000000
vt 0.625000 0.000000
vt 0.625000 0.250000
vt 0.375000 0.250000
vt 0.625000 0.500000
vt 0.375000 0.500000
vt 0.625000 0.750000
vt 0.375000 0.750000
vt 0.625000 1.000000
vt 0.375000 1.000000
vt 0.125000 0.500000
vt 0.125000 0.750000
vt 0.875000 0.500000
vt 0.875000 0.750000
vt 0.375000 0.000000
vt 0.625000 0.000000
vt 0.625000 0.250000
vt 0.375000 0.250000
vt 0.625000 0.500000
vt 0.375000 0.500000
vt 0.625000 0.750000
vt 0.375000 0.750000
vt 0.625000 1.000000
vt 0.375000 1.000000
vt 0.125000 0.500000
vt 0.125000 0.750000
vt 0.875000 0.500000
vt 0.875000 0.750000
vn 0.0000 1.0000 0.0000
vn 0.0000 0.0000 1.0000
vn -1.0000 0.0000 0.0000
vn 0.0000 -1.0000 0.0000
vn 1.0000 0.0000 0.0000
vn 0.0000 0.0000 -1.0000
usemtl Material
s off
f 1/1/1 5/2/1 7/3/1 3/4/1
f 4/5/2 3/4/2 7/6/2 8/7/2
f 8/8/3 7/9/3 5/10/3 6/11/3
f 6/12/4 2/13/4 4/5/4 8/14/4
f 2/13/5 1/1/5 3/4/5 4/5/5
f 6/11/6 5/10/6 1/1/6 2/13/6
f 9/15/1 13/16/1 15/17/1 11/18/1
f 12/19/2 11/18/2 15/20/2 16/21/2
f 16/22/3 15/23/3 13/24/3 14/25/3
f 14/26/4 10/27/4 12/19/4 16/28/4
f 10/27/5 9/15/5 11/18/5 12/19/5
f 14/25/6 13/24/6 9/15/6 10/27/6
f 17/29/3 18/30/3 20/31/3 19/32/3
f 19/32/6 20/31/6 24/33/6 23/34/6
f 23/34/5 24/33/5 22/35/5 21/36/5
f 21/36/2 22/35/2 18/37/2 17/38/2
f 19/39/4 23/34/4 21/36/4 17/40/4
f 24/33/1 20/41/1 18/42/1 22/35/1
f 25/43/3 26/44/3 28/45/3 27/46/3
f 27/46/6 28/45/6 32/47/6 31/48/6
f 31/48/5 32/47/5 30/49/5 29/50/5
f 29/50/2 30/49/2 26/51/2 25/52/2
f 27/53/4 31/48/4 29/50/4 25/54/4
f 32/47/1 28/55/1 26/56/1 30/49/1
o BezierCircle_big_BezierCircle
v -80.000000 0.000000 0.000000
v -79.269455 0.000000 -10.852844
v -77.141434 0.000000 -21.262737
v -73.711411 0.000000 -31.134224
v -69.074821 0.000000 -40.371857
v -63.327122 0.000000 -48.880180
v -56.563759 0.000000 -56.563751
v -48.880192 0.000000 -63.327110
v -40.371861 0.000000 -69.074814
v -31.134228 0.000000 -73.711403
v -21.262739 0.000000 -77.141426
v -10.852844 0.000000 -79.269440
v 0.000000 0.000000 -80.000000
v 10.852844 0.000000 -79.269455
v 21.262737 0.000000 -77.141434
v 31.134224 0.000000 -73.711411
v 40.371857 0.000000 -69.074821
v 48.880180 0.000000 -63.327122
v 56.563751 0.000000 -56.563759
v 63.327110 0.000000 -48.880192
v 69.074814 0.000000 -40.371861
v 73.711403 0.000000 -31.134228
v 77.141426 0.000000 -21.262739
v 79.269440 0.000000 -10.852844
v 80.000000 0.000000 0.000000
v 79.269455 0.000000 10.852844
v 77.141434 0.000000 21.262737
v 73.711411 0.000000 31.134224
v 69.074821 0.000000 40.371857
v 63.327122 0.000000 48.880180
v 56.563759 0.000000 56.563751
v 48.880192 0.000000 63.327110
v 40.371861 0.000000 69.074814
v 31.134228 0.000000 73.711403
v 21.262739 0.000000 77.141426
v 10.852844 0.000000 79.269440
v 0.000000 0.000000 80.000000
v -10.852844 0.000000 79.269455
v -21.262737 0.000000 77.141434
v -31.134224 0.000000 73.711411
v -40.371857 0.000000 69.074821
v -48.880180 0.000000 63.327122
v -56.563751 0.000000 56.563759
v -63.327110 0.000000 48.880192
v -69.074814 0.000000 40.371861
v -73.711403 0.000000 31.134228
v -77.141426 0.000000 21.262739
v -79.269440 0.000000 10.852844
l 33 34
l 34 35
l 35 36
l 36 37
l 37 38
l 38 39
l 39 40
l 40 41
l 41 42
l 42 43
l 43 44
l 44 45
l 45 46
l 46 47
l 47 48
l 48 49
l 49 50
l 50 51
l 51 52
l 52 53
l 53 54
l 54 55
l 55 56
l 56 57
l 57 58
l 58 59
l 59 60
l 60 61
l 61 62
l 62 63
l 63 64
l 64 65
l 65 66
l 66 67
l 67 68
l 68 69
l 69 70
l 70 71
l 71 72
l 72 73
l 73 74
l 74 75
l 75 76
l 76 77
l 77 78
l 78 79
l 79 80
l 80 33
