# Blender v2.83.0 OBJ File: 'haldCylinder_line.blend'
# www.blender.org
mtllib halfCylinder_line.mtl
o Cylinder
v 1.000000 -1.000000 0.000000
v 1.000000 1.000000 0.000000
v 0.998795 -1.000000 0.049068
v 0.998795 1.000000 0.049068
v 0.995185 -1.000000 0.098018
v 0.995185 1.000000 0.098018
v 0.989176 -1.000000 0.146731
v 0.989176 1.000000 0.146731
v 0.980785 -1.000000 0.195091
v 0.980785 1.000000 0.195091
v 0.970031 -1.000000 0.242981
v 0.970031 1.000000 0.242981
v 0.956940 -1.000000 0.290285
v 0.956940 1.000000 0.290285
v 0.941544 -1.000000 0.336890
v 0.941544 1.000000 0.336890
v 0.923879 -1.000000 0.382684
v 0.923879 1.000000 0.382684
v 0.903989 -1.000000 0.427556
v 0.903989 1.000000 0.427556
v 0.881921 -1.000000 0.471397
v 0.881921 1.000000 0.471397
v 0.857728 -1.000000 0.514103
v 0.857728 1.000000 0.514103
v 0.831470 -1.000000 0.555570
v 0.831470 1.000000 0.555570
v 0.803208 -1.000000 0.595699
v 0.803208 1.000000 0.595699
v 0.773010 -1.000000 0.634393
v 0.773010 1.000000 0.634393
v 0.740951 -1.000000 0.671559
v 0.740951 1.000000 0.671559
v 0.707107 -1.000000 0.707107
v 0.707107 1.000000 0.707107
v 0.671559 -1.000000 0.740951
v 0.671559 1.000000 0.740951
v 0.634394 -1.000000 0.773010
v 0.634394 1.000000 0.773010
v 0.595700 -1.000000 0.803207
v 0.595700 1.000000 0.803207
v 0.555571 -1.000000 0.831469
v 0.555571 1.000000 0.831469
v 0.514103 -1.000000 0.857728
v 0.514103 1.000000 0.857728
v 0.471397 -1.000000 0.881921
v 0.471397 1.000000 0.881921
v 0.427556 -1.000000 0.903989
v 0.427556 1.000000 0.903989
v 0.382684 -1.000000 0.923879
v 0.382684 1.000000 0.923879
v 0.336891 -1.000000 0.941544
v 0.336891 1.000000 0.941544
v 0.290286 -1.000000 0.956940
v 0.290286 1.000000 0.956940
v 0.242981 -1.000000 0.970031
v 0.242981 1.000000 0.970031
v 0.195092 -1.000000 0.980785
v 0.195092 1.000000 0.980785
v 0.146732 -1.000000 0.989176
v 0.146732 1.000000 0.989176
v 0.098019 -1.000000 0.995185
v 0.098019 1.000000 0.995185
v 0.049069 -1.000000 0.998795
v 0.049069 1.000000 0.998795
v 0.000002 -1.000000 1.000000
v 0.000002 1.000000 1.000000
v -0.049066 -1.000000 0.998796
v -0.049066 1.000000 0.998796
v -0.098015 -1.000000 0.995185
v -0.098015 1.000000 0.995185
v -0.146728 -1.000000 0.989177
v -0.146728 1.000000 0.989177
v -0.195088 -1.000000 0.980786
v -0.195088 1.000000 0.980786
v -0.242978 -1.000000 0.970032
v -0.242978 1.000000 0.970032
v -0.290282 -1.000000 0.956941
v -0.290282 1.000000 0.956941
v -0.336887 -1.000000 0.941545
v -0.336887 1.000000 0.941545
v -0.382681 -1.000000 0.923881
v -0.382681 1.000000 0.923881
v -0.427553 -1.000000 0.903990
v -0.427553 1.000000 0.903990
v -0.471394 -1.000000 0.881923
v -0.471394 1.000000 0.881923
v -0.514100 -1.000000 0.857730
v -0.514100 1.000000 0.857730
v -0.555568 -1.000000 0.831471
v -0.555568 1.000000 0.831471
v -0.595697 -1.000000 0.803209
v -0.595697 1.000000 0.803209
v -0.634391 -1.000000 0.773012
v -0.634391 1.000000 0.773012
v -0.671557 -1.000000 0.740953
v -0.671557 1.000000 0.740953
v -0.707104 -1.000000 0.707109
v -0.707104 1.000000 0.707109
v -0.740949 -1.000000 0.671562
v -0.740949 1.000000 0.671562
v -0.773008 -1.000000 0.634396
v -0.773008 1.000000 0.634396
v -0.803206 -1.000000 0.595702
v -0.803206 1.000000 0.595702
v -0.831468 -1.000000 0.555573
v -0.831468 1.000000 0.555573
v -0.857727 -1.000000 0.514105
v -0.857727 1.000000 0.514105
v -0.881920 -1.000000 0.471399
v -0.881920 1.000000 0.471399
v -0.903988 -1.000000 0.427557
v -0.903988 1.000000 0.427557
v -0.923879 -1.000000 0.382686
v -0.923879 1.000000 0.382686
v -0.941543 -1.000000 0.336892
v -0.941543 1.000000 0.336892
v -0.956940 -1.000000 0.290287
v -0.956940 1.000000 0.290287
v -0.970031 -1.000000 0.242982
v -0.970031 1.000000 0.242982
v -0.980785 -1.000000 0.195092
v -0.980785 1.000000 0.195092
v -0.989176 -1.000000 0.146732
v -0.989176 1.000000 0.146732
v -0.995185 -1.000000 0.098019
v -0.995185 1.000000 0.098019
v -0.998795 -1.000000 0.049069
v -0.998795 1.000000 0.049069
v -1.000000 -1.000000 0.000001
v -1.000000 1.000000 0.000001
v 0.997500 -1.000000 0.000000
v 0.997500 1.000000 0.000000
v 0.996298 -1.000000 0.048945
v 0.996298 1.000000 0.048945
v 0.992697 -1.000000 0.097773
v 0.992697 1.000000 0.097773
v 0.986704 -1.000000 0.146364
v 0.986704 1.000000 0.146364
v 0.978333 -1.000000 0.194603
v 0.978333 1.000000 0.194603
v 0.967606 -1.000000 0.242373
v 0.967606 1.000000 0.242373
v 0.954548 -1.000000 0.289559
v 0.954548 1.000000 0.289559
v 0.939190 -1.000000 0.336048
v 0.939190 1.000000 0.336048
v 0.921570 -1.000000 0.381727
v 0.921570 1.000000 0.381727
v 0.901729 -1.000000 0.426487
v 0.901729 1.000000 0.426487
v 0.879716 -1.000000 0.470219
v 0.879716 1.000000 0.470219
v 0.855584 -1.000000 0.512818
v 0.855584 1.000000 0.512818
v 0.829391 -1.000000 0.554181
v 0.829391 1.000000 0.554181
v 0.801199 -1.000000 0.594210
v 0.801199 1.000000 0.594210
v 0.771078 -1.000000 0.632807
v 0.771078 1.000000 0.632807
v 0.739099 -1.000000 0.669880
v 0.739099 1.000000 0.669880
v 0.705339 -1.000000 0.705339
v 0.705339 1.000000 0.705339
v 0.669880 -1.000000 0.739098
v 0.669880 1.000000 0.739098
v 0.632808 -1.000000 0.771078
v 0.632808 1.000000 0.771078
v 0.594211 -1.000000 0.801199
v 0.594211 1.000000 0.801199
v 0.554182 -1.000000 0.829391
v 0.554182 1.000000 0.829391
v 0.512818 -1.000000 0.855584
v 0.512818 1.000000 0.855584
v 0.470219 -1.000000 0.879716
v 0.470219 1.000000 0.879716
v 0.426487 -1.000000 0.901729
v 0.426487 1.000000 0.901729
v 0.381728 -1.000000 0.921569
v 0.381728 1.000000 0.921569
v 0.336049 -1.000000 0.939190
v 0.336049 1.000000 0.939190
v 0.289560 -1.000000 0.954548
v 0.289560 1.000000 0.954548
v 0.242374 -1.000000 0.967606
v 0.242374 1.000000 0.967606
v 0.194604 -1.000000 0.978333
v 0.194604 1.000000 0.978333
v 0.146365 -1.000000 0.986703
v 0.146365 1.000000 0.986703
v 0.097774 -1.000000 0.992697
v 0.097774 1.000000 0.992697
v 0.048947 -1.000000 0.996298
v 0.048947 1.000000 0.996298
v 0.000002 -1.000000 0.997500
v 0.000002 1.000000 0.997500
v -0.048943 -1.000000 0.996299
v -0.048943 1.000000 0.996299
v -0.097770 -1.000000 0.992697
v -0.097770 1.000000 0.992697
v -0.146362 -1.000000 0.986704
v -0.146362 1.000000 0.986704
v -0.194600 -1.000000 0.978334
v -0.194600 1.000000 0.978334
v -0.242370 -1.000000 0.967607
v -0.242370 1.000000 0.967607
v -0.289557 -1.000000 0.954549
v -0.289557 1.000000 0.954549
v -0.336045 -1.000000 0.939191
v -0.336045 1.000000 0.939191
v -0.381724 -1.000000 0.921571
v -0.381724 1.000000 0.921571
v -0.426484 -1.000000 0.901730
v -0.426484 1.000000 0.901730
v -0.470216 -1.000000 0.879718
v -0.470216 1.000000 0.879718
v -0.512815 -1.000000 0.855586
v -0.512815 1.000000 0.855586
v -0.554179 -1.000000 0.829393
v -0.554179 1.000000 0.829393
v -0.594208 -1.000000 0.801201
v -0.594208 1.000000 0.801201
v -0.632805 -1.000000 0.771080
v -0.632805 1.000000 0.771080
v -0.669878 -1.000000 0.739101
v -0.669878 1.000000 0.739101
v -0.705337 -1.000000 0.705341
v -0.705337 1.000000 0.705341
v -0.739096 -1.000000 0.669883
v -0.739096 1.000000 0.669883
v -0.771076 -1.000000 0.632810
v -0.771076 1.000000 0.632810
v -0.801198 -1.000000 0.594213
v -0.801198 1.000000 0.594213
v -0.829389 -1.000000 0.554184
v -0.829389 1.000000 0.554184
v -0.855583 -1.000000 0.512820
v -0.855583 1.000000 0.512820
v -0.879715 -1.000000 0.470221
v -0.879715 1.000000 0.470221
v -0.901728 -1.000000 0.426489
v -0.901728 1.000000 0.426489
v -0.921569 -1.000000 0.381729
v -0.921569 1.000000 0.381729
v -0.939189 -1.000000 0.336050
v -0.939189 1.000000 0.336050
v -0.954547 -1.000000 0.289561
v -0.954547 1.000000 0.289561
v -0.967606 -1.000000 0.242375
v -0.967606 1.000000 0.242375
v -0.978333 -1.000000 0.194605
v -0.978333 1.000000 0.194605
v -0.986703 -1.000000 0.146365
v -0.986703 1.000000 0.146365
v -0.992697 -1.000000 0.097774
v -0.992697 1.000000 0.097774
v -0.996298 -1.000000 0.048947
v -0.996298 1.000000 0.048947
v -0.997500 -1.000000 0.000001
v -0.997500 1.000000 0.000001
vt 0.750000 0.500000
vt 0.750000 1.000000
vt 0.742188 1.000000
vt 0.742188 0.500000
vt 0.734375 1.000000
vt 0.734375 0.500000
vt 0.726562 1.000000
vt 0.726562 0.500000
vt 0.718750 1.000000
vt 0.718750 0.500000
vt 0.710938 1.000000
vt 0.710938 0.500000
vt 0.703125 1.000000
vt 0.703125 0.500000
vt 0.695312 1.000000
vt 0.695312 0.500000
vt 0.687500 1.000000
vt 0.687500 0.500000
vt 0.679688 1.000000
vt 0.679688 0.500000
vt 0.671875 1.000000
vt 0.671875 0.500000
vt 0.664062 1.000000
vt 0.664062 0.500000
vt 0.656250 1.000000
vt 0.656250 0.500000
vt 0.648438 1.000000
vt 0.648438 0.500000
vt 0.640625 1.000000
vt 0.640625 0.500000
vt 0.632812 1.000000
vt 0.632812 0.500000
vt 0.625000 1.000000
vt 0.625000 0.500000
vt 0.617188 1.000000
vt 0.617188 0.500000
vt 0.609375 1.000000
vt 0.609375 0.500000
vt 0.601562 1.000000
vt 0.601562 0.500000
vt 0.593750 1.000000
vt 0.593750 0.500000
vt 0.585938 1.000000
vt 0.585938 0.500000
vt 0.578125 1.000000
vt 0.578125 0.500000
vt 0.570312 1.000000
vt 0.570312 0.500000
vt 0.562500 1.000000
vt 0.562500 0.500000
vt 0.554688 1.000000
vt 0.554688 0.500000
vt 0.546875 1.000000
vt 0.546875 0.500000
vt 0.539062 1.000000
vt 0.539062 0.500000
vt 0.531250 1.000000
vt 0.531250 0.500000
vt 0.523438 1.000000
vt 0.523438 0.500000
vt 0.515625 1.000000
vt 0.515625 0.500000
vt 0.507812 1.000000
vt 0.507812 0.500000
vt 0.500000 1.000000
vt 0.500000 0.500000
vt 0.492188 1.000000
vt 0.492188 0.500000
vt 0.484375 1.000000
vt 0.484375 0.500000
vt 0.476562 1.000000
vt 0.476562 0.500000
vt 0.468750 1.000000
vt 0.468750 0.500000
vt 0.460938 1.000000
vt 0.460938 0.500000
vt 0.453125 1.000000
vt 0.453125 0.500000
vt 0.445312 1.000000
vt 0.445312 0.500000
vt 0.437500 1.000000
vt 0.437500 0.500000
vt 0.429688 1.000000
vt 0.429688 0.500000
vt 0.421875 1.000000
vt 0.421875 0.500000
vt 0.414062 1.000000
vt 0.414062 0.500000
vt 0.406250 1.000000
vt 0.406250 0.500000
vt 0.398438 1.000000
vt 0.398438 0.500000
vt 0.390625 1.000000
vt 0.390625 0.500000
vt 0.382812 1.000000
vt 0.382812 0.500000
vt 0.375000 1.000000
vt 0.375000 0.500000
vt 0.367188 1.000000
vt 0.367188 0.500000
vt 0.359375 1.000000
vt 0.359375 0.500000
vt 0.351562 1.000000
vt 0.351562 0.500000
vt 0.343750 1.000000
vt 0.343750 0.500000
vt 0.335938 1.000000
vt 0.335938 0.500000
vt 0.328125 1.000000
vt 0.328125 0.500000
vt 0.320312 1.000000
vt 0.320312 0.500000
vt 0.312500 1.000000
vt 0.312500 0.500000
vt 0.304688 1.000000
vt 0.304688 0.500000
vt 0.296875 1.000000
vt 0.296875 0.500000
vt 0.289062 1.000000
vt 0.289062 0.500000
vt 0.281250 1.000000
vt 0.281250 0.500000
vt 0.273438 1.000000
vt 0.273438 0.500000
vt 0.265625 1.000000
vt 0.265625 0.500000
vt 0.257812 1.000000
vt 0.257812 0.500000
vt 0.250000 1.000000
vt 0.250000 0.500000
vt 0.750000 0.500000
vt 0.750000 1.000000
vt 0.742188 1.000000
vt 0.742188 0.500000
vt 0.734375 1.000000
vt 0.734375 0.500000
vt 0.726562 1.000000
vt 0.726562 0.500000
vt 0.718750 1.000000
vt 0.718750 0.500000
vt 0.710938 1.000000
vt 0.710938 0.500000
vt 0.703125 1.000000
vt 0.703125 0.500000
vt 0.695312 1.000000
vt 0.695312 0.500000
vt 0.687500 1.000000
vt 0.687500 0.500000
vt 0.679688 1.000000
vt 0.679688 0.500000
vt 0.671875 1.000000
vt 0.671875 0.500000
vt 0.664062 1.000000
vt 0.664062 0.500000
vt 0.656250 1.000000
vt 0.656250 0.500000
vt 0.648438 1.000000
vt 0.648438 0.500000
vt 0.640625 1.000000
vt 0.640625 0.500000
vt 0.632812 1.000000
vt 0.632812 0.500000
vt 0.625000 1.000000
vt 0.625000 0.500000
vt 0.617188 1.000000
vt 0.617188 0.500000
vt 0.609375 1.000000
vt 0.609375 0.500000
vt 0.601562 1.000000
vt 0.601562 0.500000
vt 0.593750 1.000000
vt 0.593750 0.500000
vt 0.585938 1.000000
vt 0.585938 0.500000
vt 0.578125 1.000000
vt 0.578125 0.500000
vt 0.570312 1.000000
vt 0.570312 0.500000
vt 0.562500 1.000000
vt 0.562500 0.500000
vt 0.554688 1.000000
vt 0.554688 0.500000
vt 0.546875 1.000000
vt 0.546875 0.500000
vt 0.539062 1.000000
vt 0.539062 0.500000
vt 0.531250 1.000000
vt 0.531250 0.500000
vt 0.523438 1.000000
vt 0.523438 0.500000
vt 0.515625 1.000000
vt 0.515625 0.500000
vt 0.507812 1.000000
vt 0.507812 0.500000
vt 0.500000 1.000000
vt 0.500000 0.500000
vt 0.492188 1.000000
vt 0.492188 0.500000
vt 0.484375 1.000000
vt 0.484375 0.500000
vt 0.476562 1.000000
vt 0.476562 0.500000
vt 0.468750 1.000000
vt 0.468750 0.500000
vt 0.460938 1.000000
vt 0.460938 0.500000
vt 0.453125 1.000000
vt 0.453125 0.500000
vt 0.445312 1.000000
vt 0.445312 0.500000
vt 0.437500 1.000000
vt 0.437500 0.500000
vt 0.429688 1.000000
vt 0.429688 0.500000
vt 0.421875 1.000000
vt 0.421875 0.500000
vt 0.414062 1.000000
vt 0.414062 0.500000
vt 0.406250 1.000000
vt 0.406250 0.500000
vt 0.398438 1.000000
vt 0.398438 0.500000
vt 0.390625 1.000000
vt 0.390625 0.500000
vt 0.382812 1.000000
vt 0.382812 0.500000
vt 0.375000 1.000000
vt 0.375000 0.500000
vt 0.367188 1.000000
vt 0.367188 0.500000
vt 0.359375 1.000000
vt 0.359375 0.500000
vt 0.351562 1.000000
vt 0.351562 0.500000
vt 0.343750 1.000000
vt 0.343750 0.500000
vt 0.335938 1.000000
vt 0.335938 0.500000
vt 0.328125 1.000000
vt 0.328125 0.500000
vt 0.320312 1.000000
vt 0.320312 0.500000
vt 0.312500 1.000000
vt 0.312500 0.500000
vt 0.304688 1.000000
vt 0.304688 0.500000
vt 0.296875 1.000000
vt 0.296875 0.500000
vt 0.289062 1.000000
vt 0.289062 0.500000
vt 0.281250 1.000000
vt 0.281250 0.500000
vt 0.273438 1.000000
vt 0.273438 0.500000
vt 0.265625 1.000000
vt 0.265625 0.500000
vt 0.257812 1.000000
vt 0.257812 0.500000
vt 0.250000 1.000000
vt 0.250000 0.500000
vn 0.9997 0.0000 0.0245
vn 0.9973 0.0000 0.0736
vn 0.9925 0.0000 0.1224
vn 0.9853 0.0000 0.1710
vn 0.9757 0.0000 0.2191
vn 0.9638 0.0000 0.2667
vn 0.9495 0.0000 0.3137
vn 0.9330 0.0000 0.3599
vn 0.9142 0.0000 0.4052
vn 0.8932 0.0000 0.4496
vn 0.8701 0.0000 0.4929
vn 0.8449 0.0000 0.5350
vn 0.8176 0.0000 0.5758
vn 0.7883 0.0000 0.6152
vn 0.7572 0.0000 0.6532
vn 0.7242 0.0000 0.6895
vn 0.6895 0.0000 0.7242
vn 0.6532 0.0000 0.7572
vn 0.6152 0.0000 0.7883
vn 0.5758 0.0000 0.8176
vn 0.5350 0.0000 0.8449
vn 0.4929 0.0000 0.8701
vn 0.4496 0.0000 0.8932
vn 0.4052 0.0000 0.9142
vn 0.3599 0.0000 0.9330
vn 0.3137 0.0000 0.9495
vn 0.2667 0.0000 0.9638
vn 0.2191 0.0000 0.9757
vn 0.1710 0.0000 0.9853
vn 0.1224 0.0000 0.9925
vn 0.0736 0.0000 0.9973
vn 0.0245 0.0000 0.9997
vn -0.0245 0.0000 0.9997
vn -0.0736 0.0000 0.9973
vn -0.1224 0.0000 0.9925
vn -0.1710 0.0000 0.9853
vn -0.2191 0.0000 0.9757
vn -0.2667 0.0000 0.9638
vn -0.3137 0.0000 0.9495
vn -0.3599 0.0000 0.9330
vn -0.4052 0.0000 0.9142
vn -0.4496 0.0000 0.8932
vn -0.4929 0.0000 0.8701
vn -0.5350 0.0000 0.8449
vn -0.5758 0.0000 0.8176
vn -0.6152 0.0000 0.7883
vn -0.6532 0.0000 0.7572
vn -0.6895 0.0000 0.7242
vn -0.7242 0.0000 0.6895
vn -0.7572 0.0000 0.6532
vn -0.7883 0.0000 0.6152
vn -0.8176 0.0000 0.5758
vn -0.8449 0.0000 0.5350
vn -0.8701 0.0000 0.4929
vn -0.8932 0.0000 0.4496
vn -0.9142 0.0000 0.4052
vn -0.9330 0.0000 0.3599
vn -0.9495 0.0000 0.3137
vn -0.9638 0.0000 0.2667
vn -0.9757 0.0000 0.2191
vn -0.9853 0.0000 0.1710
vn -0.9925 0.0000 0.1224
vn -0.9973 0.0000 0.0736
vn -0.9997 0.0000 0.0245
vn 0.0000 1.0000 0.0001
vn 0.0000 -1.0000 0.0000
usemtl None
s off
f 1/1/1 2/2/1 4/3/1 3/4/1
f 3/4/2 4/3/2 6/5/2 5/6/2
f 5/6/3 6/5/3 8/7/3 7/8/3
f 7/8/4 8/7/4 10/9/4 9/10/4
f 9/10/5 10/9/5 12/11/5 11/12/5
f 11/12/6 12/11/6 14/13/6 13/14/6
f 13/14/7 14/13/7 16/15/7 15/16/7
f 15/16/8 16/15/8 18/17/8 17/18/8
f 17/18/9 18/17/9 20/19/9 19/20/9
f 19/20/10 20/19/10 22/21/10 21/22/10
f 21/22/11 22/21/11 24/23/11 23/24/11
f 23/24/12 24/23/12 26/25/12 25/26/12
f 25/26/13 26/25/13 28/27/13 27/28/13
f 27/28/14 28/27/14 30/29/14 29/30/14
f 29/30/15 30/29/15 32/31/15 31/32/15
f 31/32/16 32/31/16 34/33/16 33/34/16
f 33/34/17 34/33/17 36/35/17 35/36/17
f 35/36/18 36/35/18 38/37/18 37/38/18
f 37/38/19 38/37/19 40/39/19 39/40/19
f 39/40/20 40/39/20 42/41/20 41/42/20
f 41/42/21 42/41/21 44/43/21 43/44/21
f 43/44/22 44/43/22 46/45/22 45/46/22
f 45/46/23 46/45/23 48/47/23 47/48/23
f 47/48/24 48/47/24 50/49/24 49/50/24
f 49/50/25 50/49/25 52/51/25 51/52/25
f 51/52/26 52/51/26 54/53/26 53/54/26
f 53/54/27 54/53/27 56/55/27 55/56/27
f 55/56/28 56/55/28 58/57/28 57/58/28
f 57/58/29 58/57/29 60/59/29 59/60/29
f 59/60/30 60/59/30 62/61/30 61/62/30
f 61/62/31 62/61/31 64/63/31 63/64/31
f 63/64/32 64/63/32 66/65/32 65/66/32
f 65/66/33 66/65/33 68/67/33 67/68/33
f 67/68/34 68/67/34 70/69/34 69/70/34
f 69/70/35 70/69/35 72/71/35 71/72/35
f 71/72/36 72/71/36 74/73/36 73/74/36
f 73/74/37 74/73/37 76/75/37 75/76/37
f 75/76/38 76/75/38 78/77/38 77/78/38
f 77/78/39 78/77/39 80/79/39 79/80/39
f 79/80/40 80/79/40 82/81/40 81/82/40
f 81/82/41 82/81/41 84/83/41 83/84/41
f 83/84/42 84/83/42 86/85/42 85/86/42
f 85/86/43 86/85/43 88/87/43 87/88/43
f 87/88/44 88/87/44 90/89/44 89/90/44
f 89/90/45 90/89/45 92/91/45 91/92/45
f 91/92/46 92/91/46 94/93/46 93/94/46
f 93/94/47 94/93/47 96/95/47 95/96/47
f 95/96/48 96/95/48 98/97/48 97/98/48
f 97/98/49 98/97/49 100/99/49 99/100/49
f 99/100/50 100/99/50 102/101/50 101/102/50
f 101/102/51 102/101/51 104/103/51 103/104/51
f 103/104/52 104/103/52 106/105/52 105/106/52
f 105/106/53 106/105/53 108/107/53 107/108/53
f 107/108/54 108/107/54 110/109/54 109/110/54
f 109/110/55 110/109/55 112/111/55 111/112/55
f 111/112/56 112/111/56 114/113/56 113/114/56
f 113/114/57 114/113/57 116/115/57 115/116/57
f 115/116/58 116/115/58 118/117/58 117/118/58
f 117/118/59 118/117/59 120/119/59 119/120/59
f 119/120/60 120/119/60 122/121/60 121/122/60
f 121/122/61 122/121/61 124/123/61 123/124/61
f 123/124/62 124/123/62 126/125/62 125/126/62
f 125/126/63 126/125/63 128/127/63 127/128/63
f 127/128/64 128/127/64 130/129/64 129/130/64
f 131/131/1 132/132/1 134/133/1 133/134/1
f 133/134/2 134/133/2 136/135/2 135/136/2
f 135/136/3 136/135/3 138/137/3 137/138/3
f 137/138/4 138/137/4 140/139/4 139/140/4
f 139/140/5 140/139/5 142/141/5 141/142/5
f 141/142/6 142/141/6 144/143/6 143/144/6
f 143/144/7 144/143/7 146/145/7 145/146/7
f 145/146/8 146/145/8 148/147/8 147/148/8
f 147/148/9 148/147/9 150/149/9 149/150/9
f 149/150/10 150/149/10 152/151/10 151/152/10
f 151/152/11 152/151/11 154/153/11 153/154/11
f 153/154/12 154/153/12 156/155/12 155/156/12
f 155/156/13 156/155/13 158/157/13 157/158/13
f 157/158/14 158/157/14 160/159/14 159/160/14
f 159/160/15 160/159/15 162/161/15 161/162/15
f 161/162/16 162/161/16 164/163/16 163/164/16
f 163/164/17 164/163/17 166/165/17 165/166/17
f 165/166/18 166/165/18 168/167/18 167/168/18
f 167/168/19 168/167/19 170/169/19 169/170/19
f 169/170/20 170/169/20 172/171/20 171/172/20
f 171/172/21 172/171/21 174/173/21 173/174/21
f 173/174/22 174/173/22 176/175/22 175/176/22
f 175/176/23 176/175/23 178/177/23 177/178/23
f 177/178/24 178/177/24 180/179/24 179/180/24
f 179/180/25 180/179/25 182/181/25 181/182/25
f 181/182/26 182/181/26 184/183/26 183/184/26
f 183/184/27 184/183/27 186/185/27 185/186/27
f 185/186/28 186/185/28 188/187/28 187/188/28
f 187/188/29 188/187/29 190/189/29 189/190/29
f 189/190/30 190/189/30 192/191/30 191/192/30
f 191/192/31 192/191/31 194/193/31 193/194/31
f 193/194/32 194/193/32 196/195/32 195/196/32
f 195/196/33 196/195/33 198/197/33 197/198/33
f 197/198/34 198/197/34 200/199/34 199/200/34
f 199/200/35 200/199/35 202/201/35 201/202/35
f 201/202/36 202/201/36 204/203/36 203/204/36
f 203/204/37 204/203/37 206/205/37 205/206/37
f 205/206/38 206/205/38 208/207/38 207/208/38
f 207/208/39 208/207/39 210/209/39 209/210/39
f 209/210/40 210/209/40 212/211/40 211/212/40
f 211/212/41 212/211/41 214/213/41 213/214/41
f 213/214/42 214/213/42 216/215/42 215/216/42
f 215/216/43 216/215/43 218/217/43 217/218/43
f 217/218/44 218/217/44 220/219/44 219/220/44
f 219/220/45 220/219/45 222/221/45 221/222/45
f 221/222/46 222/221/46 224/223/46 223/224/46
f 223/224/47 224/223/47 226/225/47 225/226/47
f 225/226/48 226/225/48 228/227/48 227/228/48
f 227/228/49 228/227/49 230/229/49 229/230/49
f 229/230/50 230/229/50 232/231/50 231/232/50
f 231/232/51 232/231/51 234/233/51 233/234/51
f 233/234/52 234/233/52 236/235/52 235/236/52
f 235/236/53 236/235/53 238/237/53 237/238/53
f 237/238/54 238/237/54 240/239/54 239/240/54
f 239/240/55 240/239/55 242/241/55 241/242/55
f 241/242/56 242/241/56 244/243/56 243/244/56
f 243/244/57 244/243/57 246/245/57 245/246/57
f 245/246/58 246/245/58 248/247/58 247/248/58
f 247/248/59 248/247/59 250/249/59 249/250/59
f 249/250/60 250/249/60 252/251/60 251/252/60
f 251/252/61 252/251/61 254/253/61 253/254/61
f 253/254/62 254/253/62 256/255/62 255/256/62
f 255/256/63 256/255/63 258/257/63 257/258/63
f 257/258/64 258/257/64 260/259/64 259/260/64
f 2/2/65 132/132/65 134/133/65 136/135/65 138/137/65 140/139/65 142/141/65 144/143/65 146/145/65 148/147/65 150/149/65 152/151/65 154/153/65 156/155/65 158/157/65 160/159/65 162/161/65 164/163/65 166/165/65 168/167/65 170/169/65 172/171/65 174/173/65 176/175/65 178/177/65 180/179/65 182/181/65 184/183/65 186/185/65 188/187/65 190/189/65 192/191/65 194/193/65 196/195/65 198/197/65 200/199/65 202/201/65 204/203/65 206/205/65 208/207/65 210/209/65 212/211/65 214/213/65 216/215/65 218/217/65 220/219/65 222/221/65 224/223/65 226/225/65 228/227/65 230/229/65 232/231/65 234/233/65 236/235/65 238/237/65 240/239/65 242/241/65 244/243/65 246/245/65 248/247/65 250/249/65 252/251/65 254/253/65 256/255/65 258/257/65 260/259/65 130/129/65 128/127/65 126/125/65 124/123/65 122/121/65 120/119/65 118/117/65 116/115/65 114/113/65 112/111/65 110/109/65 108/107/65 106/105/65 104/103/65 102/101/65 100/99/65 98/97/65 96/95/65 94/93/65 92/91/65 90/89/65 88/87/65 86/85/65 84/83/65 82/81/65 80/79/65 78/77/65 76/75/65 74/73/65 72/71/65 70/69/65 68/67/65 66/65/65 64/63/65 62/61/65 60/59/65 58/57/65 56/55/65 54/53/65 52/51/65 50/49/65 48/47/65 46/45/65 44/43/65 42/41/65 40/39/65 38/37/65 36/35/65 34/33/65 32/31/65 30/29/65 28/27/65 26/25/65 24/23/65 22/21/65 20/19/65 18/17/65 16/15/65 14/13/65 12/11/65 10/9/65 8/7/65 6/5/65 4/3/65
f 3/4/66 5/6/66 7/8/66 9/10/66 11/12/66 13/14/66 15/16/66 17/18/66 19/20/66 21/22/66 23/24/66 25/26/66 27/28/66 29/30/66 31/32/66 33/34/66 35/36/66 37/38/66 39/40/66 41/42/66 43/44/66 45/46/66 47/48/66 49/50/66 51/52/66 53/54/66 55/56/66 57/58/66 59/60/66 61/62/66 63/64/66 65/66/66 67/68/66 69/70/66 71/72/66 73/74/66 75/76/66 77/78/66 79/80/66 81/82/66 83/84/66 85/86/66 87/88/66 89/90/66 91/92/66 93/94/66 95/96/66 97/98/66 99/100/66 101/102/66 103/104/66 105/106/66 107/108/66 109/110/66 111/112/66 113/114/66 115/116/66 117/118/66 119/120/66 121/122/66 123/124/66 125/126/66 127/128/66 129/130/66 259/260/66 257/258/66 255/256/66 253/254/66 251/252/66 249/250/66 247/248/66 245/246/66 243/244/66 241/242/66 239/240/66 237/238/66 235/236/66 233/234/66 231/232/66 229/230/66 227/228/66 225/226/66 223/224/66 221/222/66 219/220/66 217/218/66 215/216/66 213/214/66 211/212/66 209/210/66 207/208/66 205/206/66 203/204/66 201/202/66 199/200/66 197/198/66 195/196/66 193/194/66 191/192/66 189/190/66 187/188/66 185/186/66 183/184/66 181/182/66 179/180/66 177/178/66 175/176/66 173/174/66 171/172/66 169/170/66 167/168/66 165/166/66 163/164/66 161/162/66 159/160/66 157/158/66 155/156/66 153/154/66 151/152/66 149/150/66 147/148/66 145/146/66 143/144/66 141/142/66 139/140/66 137/138/66 135/136/66 133/134/66 131/131/66 1/1/66
