# Blender v2.83.0 OBJ File: 'rounded_triangle.blend'
# www.blender.org
mtllib rounded_triangle.mtl
o Cube
v 0.266059 0.518338 -0.931948
v 0.266059 0.600000 -0.847831
v 0.300000 0.532118 -0.816940
v 0.266059 -0.504000 0.080000
v 0.266059 -0.504000 -0.080000
v 0.300000 -0.448211 0.000000
v 0.266059 0.518338 0.931948
v 0.300000 0.532118 0.816940
v 0.266059 0.600000 0.847831
v -0.266059 0.518338 -0.931948
v -0.300000 0.532118 -0.816940
v -0.266059 0.600000 -0.847831
v -0.266059 -0.504000 0.080000
v -0.300000 -0.448211 -0.000000
v -0.266059 -0.504000 -0.080000
v -0.266059 0.518338 0.931948
v -0.266059 0.600000 0.847831
v -0.300000 0.532118 0.816940
vt 0.395000 0.764142
vt 0.607987 0.764142
vt 0.607987 0.985858
vt 0.395000 0.985858
vt 0.406623 0.015811
vt 0.610858 0.015811
vt 0.610858 0.220046
vt 0.639142 0.519021
vt 0.860858 0.519021
vt 0.860858 0.730979
vt 0.639142 0.730979
vt 0.406623 0.515811
vt 0.610858 0.515811
vt 0.610858 0.720046
vt 0.607987 0.485858
vt 0.625000 0.485858
vt 0.604533 0.500000
vt 0.375000 0.764142
vt 0.400298 0.750000
vt 0.604533 0.750000
vt 0.625000 0.764142
vt 0.607987 0.264142
vt 0.604533 0.250000
vt 0.625000 0.264142
vt 0.400298 1.000000
vt 0.375000 0.985858
vt 0.625000 0.985858
vt 0.604533 1.000000
vt 0.395000 0.485858
vt 0.395000 0.264142
vt 0.400298 0.250000
vt 0.860858 0.750000
vt 0.639142 0.750000
vt 0.875000 0.522882
vt 0.875000 0.727118
vt 0.639142 0.500000
vt 0.860858 0.500000
vn 0.0000 -0.6402 0.7682
vn -1.0000 0.0000 0.0000
vn 0.0000 1.0000 0.0000
vn 1.0000 0.0000 0.0000
vn 0.9003 0.3122 -0.3031
vn 0.8543 -0.5198 0.0000
vn 0.9003 0.3122 0.3031
vn -0.9003 0.3122 -0.3031
vn -0.8543 -0.5198 0.0000
vn -0.9003 0.3122 0.3031
vn 0.0000 -1.0000 0.0000
vn 0.9441 -0.2111 -0.2533
vn -0.9441 -0.2111 -0.2533
vn 0.0000 0.7175 0.6966
vn 0.8944 0.4472 0.0000
vn -0.8944 0.4472 0.0000
vn 0.0000 0.7175 -0.6966
vn -0.9441 -0.2111 0.2533
vn 0.9441 -0.2111 0.2533
vn 0.0000 -0.6402 -0.7682
usemtl Material
s off
f 4/1/1 7/2/1 16/3/1 13/4/1
f 14/5/2 18/6/2 11/7/2
f 2/8/3 12/9/3 17/10/3 9/11/3
f 6/12/4 3/13/4 8/14/4
f 1/15/5 2/16/5 3/17/5
f 4/1/6 5/18/6 6/19/6
f 7/2/7 8/20/7 9/21/7
f 10/22/8 11/23/8 12/24/8
f 13/4/9 14/25/9 15/26/9
f 16/3/10 17/27/10 18/28/10
f 4/1/11 13/4/11 15/26/11 5/18/11
f 3/13/12 6/12/12 5/29/12 1/15/12
f 10/22/13 15/30/13 14/31/13 11/23/13
f 9/11/14 17/10/14 16/32/14 7/33/14
f 2/8/15 9/11/15 8/14/15 3/13/15
f 17/10/16 12/9/16 11/34/16 18/35/16
f 12/9/17 2/8/17 1/36/17 10/37/17
f 13/4/18 16/3/18 18/28/18 14/25/18
f 7/2/19 4/1/19 6/19/19 8/20/19
f 15/30/20 10/22/20 1/15/20 5/29/20
