# Blender v2.83.0 OBJ File: 'stairs_semicircle_smoothOverlay.blend'
# www.blender.org
mtllib stairs_semicircle_smoothOverlay.mtl
o BezierCircle
v -2.939037 0.000000 0.000000
v -2.912198 0.000000 -0.398711
v -2.834019 0.000000 -0.781150
v -2.708007 0.000000 -1.143808
v -2.537668 0.000000 -1.483180
v -2.326509 0.000000 -1.795758
v -2.078037 0.000000 -2.078037
v -1.795759 0.000000 -2.326509
v -1.483180 0.000000 -2.537668
v -1.143808 0.000000 -2.708007
v -0.781150 0.000000 -2.834019
v -0.398711 0.000000 -2.912198
v 0.000000 0.000000 -2.939037
v 0.398711 0.000000 -2.912198
v 0.781150 0.000000 -2.834019
v 1.143808 0.000000 -2.708007
v 1.483180 0.000000 -2.537668
v 1.795758 0.000000 -2.326509
v 2.078037 0.000000 -2.078037
v 2.326509 0.000000 -1.795759
v 2.537668 0.000000 -1.483180
v 2.708007 0.000000 -1.143808
v 2.834019 0.000000 -0.781150
v 2.912198 0.000000 -0.398711
v 2.939037 0.000000 0.000000
v 2.912198 0.000000 0.398711
v 2.834019 0.000000 0.781150
v 2.708007 0.000000 1.143808
v 2.537668 0.000000 1.483180
v 2.326509 0.000000 1.795758
v 2.078037 0.000000 2.078037
v 1.795759 0.000000 2.326509
v 1.483180 0.000000 2.537668
v 1.143808 0.000000 2.708007
v 0.781150 0.000000 2.834019
v 0.398711 0.000000 2.912198
v 0.000000 0.000000 2.939037
v -0.398711 0.000000 2.912198
v -0.781150 0.000000 2.834019
v -1.143808 0.000000 2.708007
v -1.483180 0.000000 2.537668
v -1.795758 0.000000 2.326509
v -2.078037 0.000000 2.078037
v -2.326509 0.000000 1.795759
v -2.537668 0.000000 1.483180
v -2.708007 0.000000 1.143808
v -2.834019 0.000000 0.781150
v -2.912198 0.000000 0.398711
l 1 2
l 2 3
l 3 4
l 4 5
l 5 6
l 6 7
l 7 8
l 8 9
l 9 10
l 10 11
l 11 12
l 12 13
l 13 14
l 14 15
l 15 16
l 16 17
l 17 18
l 18 19
l 19 20
l 20 21
l 21 22
l 22 23
l 23 24
l 24 25
l 25 26
l 26 27
l 27 28
l 28 29
l 29 30
l 30 31
l 31 32
l 32 33
l 33 34
l 34 35
l 35 36
l 36 37
l 37 38
l 38 39
l 39 40
l 40 41
l 41 42
l 42 43
l 43 44
l 44 45
l 45 46
l 46 47
l 47 48
l 48 1
o Plane
v -0.099253 0.072444 2.916838
v 0.099253 0.072444 2.916837
v -0.103058 0.185581 3.029911
v 0.103058 0.185581 3.029911
v 0.099253 0.072444 2.916837
v 0.297761 0.072444 2.903475
v 0.103058 0.185581 3.029911
v 0.309159 0.185581 3.016037
v 0.297761 0.072444 2.903475
v 0.494268 0.072444 2.875412
v 0.309159 0.185581 3.016037
v 0.513281 0.185581 2.986940
v 0.494268 0.072444 2.875412
v 0.689320 0.072444 2.836617
v 0.513281 0.185581 2.986940
v 0.715911 0.185581 2.946585
v 0.689320 0.072444 2.836617
v 0.879940 0.072444 2.781358
v 0.715911 0.185581 2.946585
v 0.914002 0.185581 2.889246
v 0.879940 0.072444 2.781358
v 1.068242 0.072444 2.717467
v 0.914002 0.185581 2.889246
v 1.109622 0.185581 2.822765
v 1.068242 0.072444 2.717467
v 1.249233 0.072444 2.635916
v 1.109622 0.185581 2.822765
v 1.297720 0.185581 2.738136
v 1.249233 0.072444 2.635916
v 1.427581 0.072444 2.547965
v 1.297720 0.185581 2.738136
v 1.482941 0.185581 2.646632
v 1.427581 0.072444 2.547965
v 1.595409 0.072444 2.441751
v 1.482941 0.185581 2.646632
v 1.657357 0.185581 2.536422
v 1.595409 0.072444 2.441751
v 1.760808 0.072444 2.331310
v 1.657357 0.185581 2.536422
v 1.829048 0.185581 2.421549
v 1.760808 0.072444 2.331310
v 1.912228 0.072444 2.202582
v 1.829048 0.185581 2.421549
v 1.986426 0.185581 2.287990
v 1.912228 0.072444 2.202582
v 2.061925 0.072444 2.071594
v 1.986426 0.185581 2.287990
v 2.141738 0.185581 2.151780
v 2.061925 0.072444 2.071594
v 2.193557 0.072444 1.922538
v 2.141738 0.185581 2.151780
v 2.278618 0.185581 1.997134
v 2.193557 0.072444 1.922538
v 2.323704 0.072444 1.772202
v 2.278618 0.185581 1.997134
v 2.413623 0.185581 1.840864
v 2.323704 0.072444 1.772202
v 2.434142 0.072444 1.606801
v 2.413623 0.185581 1.840864
v 2.528521 0.185581 1.669191
v 2.434142 0.072444 1.606801
v 2.541910 0.072444 1.439867
v 2.528521 0.185581 1.669191
v 2.640315 0.185581 1.495692
v 2.541910 0.072444 1.439867
v 2.629856 0.072444 1.261517
v 2.640315 0.185581 1.495692
v 2.731847 0.185581 1.310486
v 2.629856 0.072444 1.261517
v 2.713069 0.072444 1.081213
v 2.731847 0.185581 1.310486
v 2.818170 0.185581 1.123091
v 2.713069 0.072444 1.081213
v 2.776956 0.072444 0.892910
v 2.818170 0.185581 1.123091
v 2.884682 0.185581 0.927481
v 2.776956 0.072444 0.892910
v 2.833949 0.072444 0.702755
v 2.884682 0.185581 0.927481
v 2.943790 0.185581 0.729864
v 2.833949 0.072444 0.702755
v 2.872738 0.072444 0.507703
v 2.943790 0.185581 0.729864
v 2.984176 0.185581 0.527241
v 2.872738 0.072444 0.507703
v 2.902558 0.072444 0.311435
v 2.984176 0.185581 0.527241
v 3.015065 0.185581 0.323354
v 2.902558 0.072444 0.311435
v 2.915915 0.072444 0.112926
v 3.015065 0.185581 0.323354
v 3.028970 0.185581 0.117255
v 2.915915 0.072444 0.112926
v 2.917760 0.072444 -0.085580
v 3.028970 0.185581 0.117255
v 3.030850 0.185581 -0.088861
v 2.917760 0.072444 -0.085580
v 2.904393 0.072444 -0.284089
v 3.030850 0.185581 -0.088861
v 3.017006 0.185581 -0.294966
v 2.904393 0.072444 -0.284089
v 2.878086 0.072444 -0.480835
v 3.017006 0.185581 -0.294966
v 2.989703 0.185581 -0.499322
v 2.878086 0.072444 -0.480835
v 2.839287 0.072444 -0.675885
v 2.989703 0.185581 -0.499322
v 2.949379 0.185581 -0.701958
v 2.839287 0.072444 -0.675885
v 2.785761 0.072444 -0.866972
v 2.949379 0.185581 -0.701958
v 2.893809 0.185581 -0.900523
v 2.785761 0.072444 -0.866972
v 2.721866 0.072444 -1.055272
v 2.893809 0.185581 -0.900523
v 2.827358 0.185581 -1.096154
v 2.721866 0.072444 -1.055272
v 2.641975 0.072444 -1.236951
v 2.827358 0.185581 -1.096154
v 2.744423 0.185581 -1.284956
v 2.641975 0.072444 -1.236951
v 2.554020 0.072444 -1.415297
v 2.744423 0.185581 -1.284956
v 2.652946 0.185581 -1.470192
v 2.554020 0.072444 -1.415297
v 2.449359 0.072444 -1.584020
v 2.652946 0.185581 -1.470192
v 2.544319 0.185581 -1.645523
v 2.449359 0.072444 -1.584020
v 2.338914 0.072444 -1.749415
v 2.544319 0.185581 -1.645523
v 2.429472 0.185581 -1.817232
v 2.338914 0.072444 -1.749415
v 2.211605 0.072444 -1.901920
v 2.429472 0.185581 -1.817232
v 2.297359 0.185581 -1.975719
v 2.211605 0.072444 -1.901920
v 2.080613 0.072444 -2.051615
v 2.297359 0.185581 -1.975719
v 2.161171 0.185581 -2.131052
v 2.080613 0.072444 -2.051615
v 1.932847 0.072444 -2.184534
v 2.161171 0.185581 -2.131052
v 2.007840 0.185581 -2.269246
v 1.932847 0.072444 -2.184534
v 1.783190 0.072444 -2.315569
v 2.007840 0.185581 -2.269246
v 1.852273 0.185581 -2.405165
v 1.783190 0.072444 -2.315569
v 1.618192 0.072444 -2.426534
v 1.852273 0.185581 -2.405165
v 1.681024 0.185581 -2.520619
v 1.618192 0.072444 -2.426534
v 1.452152 0.072444 -2.535854
v 1.681024 0.185581 -2.520619
v 1.508441 0.185581 -2.633995
v 1.452152 0.072444 -2.535854
v 1.273800 0.072444 -2.623797
v 1.508441 0.185581 -2.633995
v 1.323249 0.185581 -2.725555
v 1.273800 0.072444 -2.623797
v 1.094184 0.072444 -2.708671
v 1.323249 0.185581 -2.725555
v 1.136558 0.185581 -2.813573
v 1.094184 0.072444 -2.708671
v 0.905878 0.072444 -2.772554
v 1.136558 0.185581 -2.813573
v 0.940958 0.185581 -2.880115
v 0.905878 0.072444 -2.772554
v 0.716190 0.072444 -2.831279
v 0.940958 0.185581 -2.880115
v 0.743816 0.185581 -2.940991
v 0.716190 0.072444 -2.831279
v 0.521136 0.072444 -2.870064
v 0.743816 0.185581 -2.940991
v 0.541198 0.185581 -2.981408
v 0.521136 0.072444 -2.870064
v 0.325105 0.072444 -2.901640
v 0.541198 0.185581 -2.981408
v 0.337546 0.185581 -3.014091
v 0.325105 0.072444 -2.901640
v 0.126596 0.072444 -2.914993
v 0.337546 0.185581 -3.014091
v 0.131449 0.185581 -3.028026
v 0.126596 0.072444 -2.914993
v -0.071910 0.072444 -2.918683
v 0.131449 0.185581 -3.028026
v -0.074667 0.185581 -3.031787
vt 0.000000 0.000000
vt 0.000000 1.000000
vt 1.000000 1.000000
vt 1.000000 0.000000
vt 0.000000 0.000000
vt 0.000000 1.000000
vt 1.000000 1.000000
vt 1.000000 0.000000
vt 0.000000 0.000000
vt 0.000000 1.000000
vt 1.000000 1.000000
vt 1.000000 0.000000
vt 0.000000 0.000000
vt 0.000000 1.000000
vt 1.000000 1.000000
vt 1.000000 0.000000
vt 0.000000 0.000000
vt 0.000000 1.000000
vt 1.000000 1.000000
vt 1.000000 0.000000
vt 0.000000 0.000000
vt 0.000000 1.000000
vt 1.000000 1.000000
vt 1.000000 0.000000
vt 0.000000 0.000000
vt 0.000000 1.000000
vt 1.000000 1.000000
vt 1.000000 0.000000
vt 0.000000 0.000000
vt 0.000000 1.000000
vt 1.000000 1.000000
vt 1.000000 0.000000
vt 0.000000 0.000000
vt 0.000000 1.000000
vt 1.000000 1.000000
vt 1.000000 0.000000
vt 0.000000 0.000000
vt 0.000000 1.000000
vt 1.000000 1.000000
vt 1.000000 0.000000
vt 0.000000 0.000000
vt 0.000000 1.000000
vt 1.000000 1.000000
vt 1.000000 0.000000
vt 0.000000 0.000000
vt 0.000000 1.000000
vt 1.000000 1.000000
vt 1.000000 0.000000
vt 0.000000 0.000000
vt 0.000000 1.000000
vt 1.000000 1.000000
vt 1.000000 0.000000
vt 0.000000 0.000000
vt 0.000000 1.000000
vt 1.000000 1.000000
vt 1.000000 0.000000
vt 0.000000 0.000000
vt 0.000000 1.000000
vt 1.000000 1.000000
vt 1.000000 0.000000
vt 0.000000 0.000000
vt 0.000000 1.000000
vt 1.000000 1.000000
vt 1.000000 0.000000
vt 0.000000 0.000000
vt 0.000000 1.000000
vt 1.000000 1.000000
vt 1.000000 0.000000
vt 0.000000 0.000000
vt 0.000000 1.000000
vt 1.000000 1.000000
vt 1.000000 0.000000
vt 0.000000 0.000000
vt 0.000000 1.000000
vt 1.000000 1.000000
vt 1.000000 0.000000
vt 0.000000 0.000000
vt 0.000000 1.000000
vt 1.000000 1.000000
vt 1.000000 0.000000
vt 0.000000 0.000000
vt 0.000000 1.000000
vt 1.000000 1.000000
vt 1.000000 0.000000
vt 0.000000 0.000000
vt 0.000000 1.000000
vt 1.000000 1.000000
vt 1.000000 0.000000
vt 0.000000 0.000000
vt 0.000000 1.000000
vt 1.000000 1.000000
vt 1.000000 0.000000
vt 0.000000 0.000000
vt 0.000000 1.000000
vt 1.000000 1.000000
vt 1.000000 0.000000
vt 0.000000 0.000000
vt 0.000000 1.000000
vt 1.000000 1.000000
vt 1.000000 0.000000
vt 0.000000 0.000000
vt 0.000000 1.000000
vt 1.000000 1.000000
vt 1.000000 0.000000
vt 0.000000 0.000000
vt 0.000000 1.000000
vt 1.000000 1.000000
vt 1.000000 0.000000
vt 0.000000 0.000000
vt 0.000000 1.000000
vt 1.000000 1.000000
vt 1.000000 0.000000
vt 0.000000 0.000000
vt 0.000000 1.000000
vt 1.000000 1.000000
vt 1.000000 0.000000
vt 0.000000 0.000000
vt 0.000000 1.000000
vt 1.000000 1.000000
vt 1.000000 0.000000
vt 0.000000 0.000000
vt 0.000000 1.000000
vt 1.000000 1.000000
vt 1.000000 0.000000
vt 0.000000 0.000000
vt 0.000000 1.000000
vt 1.000000 1.000000
vt 1.000000 0.000000
vt 0.000000 0.000000
vt 0.000000 1.000000
vt 1.000000 1.000000
vt 1.000000 0.000000
vt 0.000000 0.000000
vt 0.000000 1.000000
vt 1.000000 1.000000
vt 1.000000 0.000000
vt 0.000000 0.000000
vt 0.000000 1.000000
vt 1.000000 1.000000
vt 1.000000 0.000000
vt 0.000000 0.000000
vt 0.000000 1.000000
vt 1.000000 1.000000
vt 1.000000 0.000000
vt 0.000000 0.000000
vt 0.000000 1.000000
vt 1.000000 1.000000
vt 1.000000 0.000000
vt 0.000000 0.000000
vt 0.000000 1.000000
vt 1.000000 1.000000
vt 1.000000 0.000000
vt 0.000000 0.000000
vt 0.000000 1.000000
vt 1.000000 1.000000
vt 1.000000 0.000000
vt 0.000000 0.000000
vt 0.000000 1.000000
vt 1.000000 1.000000
vt 1.000000 0.000000
vt 0.000000 0.000000
vt 0.000000 1.000000
vt 1.000000 1.000000
vt 1.000000 0.000000
vt 0.000000 0.000000
vt 0.000000 1.000000
vt 1.000000 1.000000
vt 1.000000 0.000000
vt 0.000000 0.000000
vt 0.000000 1.000000
vt 1.000000 1.000000
vt 1.000000 0.000000
vt 0.000000 0.000000
vt 0.000000 1.000000
vt 1.000000 1.000000
vt 1.000000 0.000000
vt 0.000000 0.000000
vt 0.000000 1.000000
vt 1.000000 1.000000
vt 1.000000 0.000000
vt 0.000000 0.000000
vt 0.000000 1.000000
vt 1.000000 1.000000
vt 1.000000 0.000000
vt 0.000000 0.000000
vt 0.000000 1.000000
vt 1.000000 1.000000
vt 1.000000 0.000000
vn -0.0000 0.7069 -0.7073
vn -0.0475 0.7069 -0.7057
vn -0.0999 0.7069 -0.7002
vn -0.1381 0.7069 -0.6937
vn -0.1968 0.7069 -0.6794
vn -0.2274 0.7069 -0.6698
vn -0.2904 0.7069 -0.6450
vn -0.3131 0.7068 -0.6343
vn -0.3781 0.7068 -0.5979
vn -0.3931 0.7068 -0.5881
vn -0.4580 0.7068 -0.5392
vn -0.4662 0.7067 -0.5322
vn -0.5300 0.7067 -0.4686
vn -0.5351 0.7068 -0.4628
vn -0.5881 0.7068 -0.3932
vn -0.5945 0.7068 -0.3834
vn -0.6343 0.7068 -0.3131
vn -0.6424 0.7068 -0.2962
vn -0.6698 0.7068 -0.2275
vn -0.6776 0.7069 -0.2029
vn -0.6937 0.7069 -0.1381
vn -0.6993 0.7069 -0.1061
vn -0.7057 0.7069 -0.0475
vn -0.7073 0.7069 -0.0065
vn -0.7057 0.7069 0.0475
vn -0.7011 0.7069 0.0937
vn -0.6937 0.7069 0.1380
vn -0.6811 0.7069 0.1907
vn -0.6698 0.7069 0.2274
vn -0.6476 0.7069 0.2846
vn -0.6343 0.7069 0.3130
vn -0.6012 0.7069 0.3727
vn -0.5881 0.7068 0.3931
vn -0.5432 0.7068 0.4531
vn -0.5321 0.7068 0.4661
vn -0.4734 0.7068 0.5257
vn -0.4657 0.7068 0.5325
vn -0.3952 0.7067 0.5868
vn -0.3887 0.7068 0.5911
vn -0.3132 0.7068 0.6343
vn -0.3019 0.7068 0.6397
vn -0.2276 0.7068 0.6698
vn -0.2090 0.7068 0.6758
vn -0.1382 0.7069 0.6937
vn -0.1123 0.7069 0.6984
vn -0.0476 0.7069 0.7057
vn -0.0130 0.7069 0.7072
usemtl None
s off
f 49/1/1 51/2/1 52/3/1 50/4/1
f 53/5/2 55/6/2 56/7/2 54/8/2
f 57/9/3 59/10/3 60/11/3 58/12/3
f 61/13/4 63/14/4 64/15/4 62/16/4
f 65/17/5 67/18/5 68/19/5 66/20/5
f 69/21/6 71/22/6 72/23/6 70/24/6
f 73/25/7 75/26/7 76/27/7 74/28/7
f 77/29/8 79/30/8 80/31/8 78/32/8
f 81/33/9 83/34/9 84/35/9 82/36/9
f 85/37/10 87/38/10 88/39/10 86/40/10
f 89/41/11 91/42/11 92/43/11 90/44/11
f 93/45/12 95/46/12 96/47/12 94/48/12
f 97/49/13 99/50/13 100/51/13 98/52/13
f 101/53/14 103/54/14 104/55/14 102/56/14
f 105/57/15 107/58/15 108/59/15 106/60/15
f 109/61/16 111/62/16 112/63/16 110/64/16
f 113/65/17 115/66/17 116/67/17 114/68/17
f 117/69/18 119/70/18 120/71/18 118/72/18
f 121/73/19 123/74/19 124/75/19 122/76/19
f 125/77/20 127/78/20 128/79/20 126/80/20
f 129/81/21 131/82/21 132/83/21 130/84/21
f 133/85/22 135/86/22 136/87/22 134/88/22
f 137/89/23 139/90/23 140/91/23 138/92/23
f 141/93/24 143/94/24 144/95/24 142/96/24
f 145/97/25 147/98/25 148/99/25 146/100/25
f 149/101/26 151/102/26 152/103/26 150/104/26
f 153/105/27 155/106/27 156/107/27 154/108/27
f 157/109/28 159/110/28 160/111/28 158/112/28
f 161/113/29 163/114/29 164/115/29 162/116/29
f 165/117/30 167/118/30 168/119/30 166/120/30
f 169/121/31 171/122/31 172/123/31 170/124/31
f 173/125/32 175/126/32 176/127/32 174/128/32
f 177/129/33 179/130/33 180/131/33 178/132/33
f 181/133/34 183/134/34 184/135/34 182/136/34
f 185/137/35 187/138/35 188/139/35 186/140/35
f 189/141/36 191/142/36 192/143/36 190/144/36
f 193/145/37 195/146/37 196/147/37 194/148/37
f 197/149/38 199/150/38 200/151/38 198/152/38
f 201/153/39 203/154/39 204/155/39 202/156/39
f 205/157/40 207/158/40 208/159/40 206/160/40
f 209/161/41 211/162/41 212/163/41 210/164/41
f 213/165/42 215/166/42 216/167/42 214/168/42
f 217/169/43 219/170/43 220/171/43 218/172/43
f 221/173/44 223/174/44 224/175/44 222/176/44
f 225/177/45 227/178/45 228/179/45 226/180/45
f 229/181/46 231/182/46 232/183/46 230/184/46
f 233/185/47 235/186/47 236/187/47 234/188/47
