# Blender v2.83.0 OBJ File: 'starting block pedal.blend'
# www.blender.org
mtllib starting block pedal.mtl.mtl
o Cube
v 0.599584 0.747574 -1.000000
v 0.599584 -1.000000 -1.000000
v 0.599584 -1.000000 1.000000
v -1.000000 0.747574 -1.000000
v -1.000000 -1.000000 -1.000000
v -1.000000 -1.000000 1.000000
vt 0.625000 0.500000
vt 0.875000 0.500000
vt 0.875000 0.750000
vt 0.625000 0.750000
vt 0.625000 0.000000
vt 0.625000 0.250000
vt 0.375000 0.250000
vt 0.125000 0.500000
vt 0.375000 0.500000
vt 0.375000 0.750000
vt 0.125000 0.750000
vn 0.0000 0.7530 0.6580
vn -1.0000 0.0000 0.0000
vn 0.0000 -1.0000 0.0000
vn 1.0000 0.0000 0.0000
vn 0.0000 0.0000 -1.0000
usemtl Material
s off
f 1/1/1 4/2/1 6/3/1 3/4/1
f 6/5/2 4/6/2 5/7/2
f 5/8/3 2/9/3 3/10/3 6/11/3
f 2/9/4 1/1/4 3/10/4
f 5/7/5 4/6/5 1/1/5 2/9/5
